<?xml version="1.0" encoding="UTF-8"?>
<svg width="24px" height="24px" viewBox="0 0 24 24" version="1.1" xmlns="http://www.w3.org/2000/svg" xmlns:xlink="http://www.w3.org/1999/xlink">
    <!-- Generator: Sketch 54.1 (76490) - https://sketchapp.com -->
    <title>Achievement 24 x24</title>
    <desc>Created with Sketch.</desc>
    <g id="Achievement-24-x24" stroke="none" stroke-width="1" fill="none" fill-rule="evenodd">
        <path d="M5.72302521,21 L6.87663866,14.4869258 L2,9.86925795 L8.73815126,8.92791519 L11.7467227,3 L14.7618487,8.92155477 L21.5,9.86289753 L16.629916,14.4805654 L17.7769748,21 L11.7467227,17.9215548 L5.72302521,21 Z M11.7462102,16.3501364 L15.4564575,18.3996414 L14.7497437,14.0630077 L17.7532773,10.9887503 L13.6048674,10.3575622 L11.7462102,6.40706714 L9.89462007,10.3575622 L5.75327731,10.9887503 L8.74974374,14.0630077 L8.04302996,18.4070671 L11.7462102,16.3501364 Z" id="Shape" fill="#000000" fill-rule="nonzero"></path>
        <path d="M4.65575,5.338 C4.54175,5.338 4.42775,5.293 4.34075,5.206 L2.13275,2.998 C1.95575,2.824 1.95575,2.542 2.13275,2.368 C2.30675,2.194 2.58875,2.194 2.76275,2.368 L4.97075,4.576 C5.14475,4.75 5.14475,5.032 4.97075,5.206 C4.88375,5.296 4.76975,5.338 4.65575,5.338 Z" id="Path" fill="#000000" fill-rule="nonzero"></path>
        <path d="M19.44775,5.338 C19.33075,5.338 19.21975,5.293 19.13275,5.206 C18.95575,5.032 18.95575,4.75 19.13275,4.576 L21.34075,2.368 C21.51775,2.194 21.79675,2.194 21.97375,2.368 C22.14775,2.542 22.14775,2.824 21.97375,2.998 L19.76275,5.206 C19.67575,5.296 19.56175,5.338 19.44775,5.338 Z" id="Path" fill="#000000" fill-rule="nonzero"></path>
    </g>
</svg>