<?xml version="1.0" encoding="UTF-8"?>
<svg width="24px" height="24px" viewBox="0 0 24 24" version="1.1" xmlns="http://www.w3.org/2000/svg" xmlns:xlink="http://www.w3.org/1999/xlink">
    <!-- Generator: Sketch 54.1 (76490) - https://sketchapp.com -->
    <title>Birthday 24 x24</title>
    <desc>Created with Sketch.</desc>
    <g id="Birthday-24-x24" stroke="none" stroke-width="1" fill="none" fill-rule="evenodd" stroke-linecap="round" stroke-linejoin="round">
        <g id="Group-3" transform="translate(2.000000, 1.000000)" stroke="#000000">
            <path d="M19.0775815,15.0229273 L19.0775815,20.355856 C19.0775815,21.263892 18.3414735,22 17.4334375,22 L2.72152009,22 C1.81348415,22 1.07737544,21.263892 1.07737544,20.355856 L1.07737544,14.8976772" id="Path"></path>
            <path d="M20.1549565,14.8976772 L17.724002,14.8976772 C16.8029525,15.4093523 15.6711496,15.353069 14.8054092,14.7525373 L14.6436469,14.64033 C13.6959043,13.9829165 12.4396248,13.9829165 11.4918813,14.64033 L11.4918767,14.6403318 C10.5441332,15.2977452 9.28785459,15.2977452 8.34011104,14.6403318 L8.34010741,14.64033 C7.39236386,13.9829165 6.13608528,13.9829165 5.1883413,14.64033 L5.08582623,14.7114404 C4.1895701,15.333139 3.01156326,15.3698008 2.07838137,14.8050386 L-2.46913601e-13,14.7860829 L-2.46913601e-13,11.7156226 C-2.46913601e-13,10.9160183 0.648207235,10.2678117 1.44781125,10.2678117 L18.707146,10.2678117 C19.5067493,10.2678117 20.1549568,10.9160183 20.1549568,11.7156226 L20.1549568,14.8976772 L20.1549565,14.8976772 Z" id="Path"></path>
            <path d="M8.55181226,10.2678117 L8.55181226,6.22323221 L8.55181317,6.22323039 C9.29303138,5.6259521 10.3502976,5.6259521 11.0915159,6.22323039 L11.0915168,6.22323221 L11.0915168,10.2678117" id="Path"></path>
            <path d="M9.89684338,-2.14050999e-13 C7.37834867,4.7141227 9.89676404,4.2435645 9.89676404,4.2435645 C9.89676404,4.2435645 12.0771253,4.61847382 9.89684338,-2.14050999e-13 Z" id="Path"></path>
        </g>
    </g>
</svg>