<?xml version="1.0" encoding="UTF-8"?>
<svg width="40px" height="40px" viewBox="0 0 40 40" version="1.1" xmlns="http://www.w3.org/2000/svg" xmlns:xlink="http://www.w3.org/1999/xlink">
    <!-- Generator: Sketch 54.1 (76490) - https://sketchapp.com -->
    <title>Email us Button</title>
    <desc>Created with Sketch.</desc>
    <g id="Page-1" stroke="none" stroke-width="1" fill="none" fill-rule="evenodd">
        <g id="Emailer_Birthday-I" transform="translate(-377.000000, -1124.000000)">
            <g id="Email-us-Button" transform="translate(377.000000, 1124.000000)">
                <circle id="Oval-3-Copy-3" stroke="#777777" cx="20" cy="20" r="19.5"></circle>
                <path d="M12.1747967,13.3333333 C11.4319241,13.3333333 10.8333333,13.9530864 10.8333333,14.7222222 L10.8333333,24.4444444 C10.8333333,25.2135802 11.4319241,25.8333333 12.1747967,25.8333333 L27.8252033,25.8333333 C28.5680759,25.8333333 29.1666667,25.2135802 29.1666667,24.4444444 L29.1666667,14.7222222 C29.1666667,13.9530864 28.5680759,13.3333333 27.8252033,13.3333333 L12.1747967,13.3333333 Z M12.9215869,15.8357263 C13.0712129,15.8204159 13.2006026,15.8800288 13.2953453,15.9728686 L19.3533582,21.9204809 C19.7304893,22.2908629 20.2538736,22.2908629 20.6322311,21.9204809 L26.7046547,15.9728686 C26.8818757,15.7985904 27.1909392,15.8112948 27.3549759,15.9995805 C27.5190125,16.1881919 27.5070547,16.5162259 27.3298338,16.6908299 L23.8948749,20.0578208 L27.3227817,23.294836 C27.5275976,23.4564098 27.5610182,23.8114814 27.3908493,24.0124715 C27.220987,24.2147646 26.885555,24.2173706 26.7120134,24.0202896 L23.2194116,20.7220328 L21.2577168,22.6381164 C20.5436207,23.3381612 19.4419686,23.3394642 18.7281791,22.6381164 L16.7805884,20.7220328 L13.2879866,24.0202896 C13.114445,24.2186737 12.779013,24.2147646 12.6091507,24.0124715 C12.4389818,23.8101784 12.4724024,23.4551068 12.6772183,23.294836 L16.1051251,20.0578208 L12.6701662,16.6908299 C12.5358708,16.5673693 12.479761,16.3559551 12.532498,16.1754875 C12.5849285,15.9946941 12.744366,15.855923 12.9215869,15.8357263 Z" id="Page-1-Copy-2" fill="#777777"></path>
            </g>
        </g>
    </g>
</svg>