<?xml version="1.0" encoding="UTF-8"?>
<svg width="40px" height="40px" viewBox="0 0 40 40" version="1.1" xmlns="http://www.w3.org/2000/svg" xmlns:xlink="http://www.w3.org/1999/xlink">
    <!-- Generator: Sketch 54.1 (76490) - https://sketchapp.com -->
    <title>FB Button</title>
    <desc>Created with Sketch.</desc>
    <g id="Page-1" stroke="none" stroke-width="1" fill="none" fill-rule="evenodd">
        <g id="Emailer_Birthday-I" transform="translate(-183.000000, -1124.000000)">
            <g id="FB-Button" transform="translate(183.000000, 1124.000000)">
                <circle id="Oval-3" stroke="#777777" style="mix-blend-mode: multiply;" cx="20" cy="20" r="19.5"></circle>
                <path d="M28.3333333,27.4135364 C28.3333333,27.9215585 27.9215585,28.3333333 27.4135364,28.3333333 L23.1663988,28.3333333 L23.1663988,21.8788646 L25.3328703,21.8788646 L25.6574778,19.3637239 L23.1663988,19.3637239 L23.1663988,17.7579381 C23.1663988,17.0297277 23.3688813,16.5330555 24.4130733,16.5330555 L25.7450991,16.5326015 L25.7450991,14.2830487 C25.5144689,14.2521769 24.7240609,14.1836234 23.8042639,14.1836234 C21.8838586,14.1836234 20.5690847,15.3558425 20.5690847,17.508694 L20.5690847,19.3637239 L18.3971652,19.3637239 L18.3971652,21.8788646 L20.5690847,21.8788646 L20.5690847,28.3333333 L12.5864636,28.3333333 C12.0784415,28.3333333 11.6666667,27.9215585 11.6666667,27.4135364 L11.6666667,12.5864636 C11.6666667,12.0784415 12.0784415,11.6666667 12.5864636,11.6666667 L27.4135364,11.6666667 C27.9215585,11.6666667 28.3333333,12.0784415 28.3333333,12.5864636 L28.3333333,27.4135364" id="Facebook" fill="#777777"></path>
            </g>
        </g>
    </g>
</svg>