<?xml version="1.0" encoding="UTF-8"?>
<svg width="41px" height="40px" viewBox="0 0 41 40" version="1.1" xmlns="http://www.w3.org/2000/svg" xmlns:xlink="http://www.w3.org/1999/xlink">
    <!-- Generator: Sketch 54.1 (76490) - https://sketchapp.com -->
    <title>Linkedin Button</title>
    <desc>Created with Sketch.</desc>
    <g id="Page-1" stroke="none" stroke-width="1" fill="none" fill-rule="evenodd">
        <g id="Emailer_Birthday-I" transform="translate(-247.000000, -1124.000000)">
            <g id="Linkedin-Button" transform="translate(247.666667, 1124.000000)">
                <circle id="Oval-3-Copy" stroke="#777777" style="mix-blend-mode: multiply;" cx="20" cy="20" r="19.5"></circle>
                <path d="M12.9201681,16.4770254 L16.1685642,16.4770254 L16.1685642,26.6666667 L12.9201681,26.6666667 L12.9201681,16.4770254 Z M25.0440499,16.3790739 C27.3527153,16.3790739 29.1666667,17.8447685 29.1666667,21.0006858 L29.1666667,26.6666667 L25.4831933,26.6666667 L25.4831933,21.3933864 C25.4831933,20.0135671 24.9071564,19.0711751 23.6398753,19.0711751 C22.670778,19.0711751 22.1317882,19.7071891 21.8810427,20.3199451 C21.7870697,20.5395533 21.8015271,20.8459314 21.8015271,21.1527567 L21.8015271,26.6666667 L18.15239,26.6666667 C18.15239,26.6666667 18.1993765,17.3259385 18.15239,16.4770254 L21.8015271,16.4770254 L21.8015271,18.0760056 C22.0170326,17.376927 23.183112,16.3790739 25.0440499,16.3790739 Z M14.4842776,11.6666667 C15.6828861,11.6666667 16.4197615,12.4274682 16.4432547,13.4333721 C16.4432547,14.4204908 15.6828861,15.2023139 14.4616879,15.2023139 L14.4381946,15.2023139 C13.2626276,15.2023139 12.5,14.4236217 12.5,13.4360557 C12.5,12.4292572 13.2847655,11.6666667 14.4842776,11.6666667 Z" id="Linkedin" fill="#777777"></path>
            </g>
        </g>
    </g>
</svg>