<?xml version="1.0" encoding="UTF-8"?>
<svg width="128px" height="24px" viewBox="0 0 128 24" version="1.1" xmlns="http://www.w3.org/2000/svg" xmlns:xlink="http://www.w3.org/1999/xlink">
    <!-- Generator: Sketch 54.1 (76490) - https://sketchapp.com -->
    <title>Group</title>
    <desc>Created with Sketch.</desc>
    <defs>
        <polygon id="path-1" points="0.109000278 0.119747135 30.997145 0.119747135 30.997145 23.0789103 0.109000278 23.0789103"></polygon>
        <polygon id="path-3" points="0.130625583 0.0194129314 23.9022973 0.0194129314 23.9022973 13.4560223 0.130625583 13.4560223"></polygon>
    </defs>
    <g id="Page-1" stroke="none" stroke-width="1" fill="none" fill-rule="evenodd">
        <g id="Emailer_Birthday-I" transform="translate(-61.000000, -25.000000)">
            <g id="Group" transform="translate(61.367865, 25.576416)">
                <polyline id="Fill-1" fill="#C34A2C" points="35.1618731 4.82728084 35.1618731 11.3626953 39.1881118 7.57083892 39.1881118 4.82728084 35.1618731 4.82728084"></polyline>
                <path d="M4.01422465,7.46090042 C4.97884434,5.85146623 6.56885039,4.97359304 8.65427253,4.94927579 L8.65427253,8.48529016 C5.78684439,8.24130027 4.01422465,9.68010501 4.01422465,11.8993096 L4.01422465,18.2150514 L-1.5187851e-13,18.2150514 L-1.5187851e-13,5.09558798 L4.01422465,5.09558798 L4.01422465,7.46090042" id="Fill-2" fill="#33353A"></path>
                <path d="M13.2643945,11.7041585 C13.2643945,13.8500027 14.6717869,15.3131247 16.7574274,15.3131247 C18.8166371,15.3131247 20.2502419,13.8500027 20.2502419,11.7041585 C20.2502419,9.5583144 18.8166371,8.09498807 16.7574274,8.09498807 C14.6717869,8.09498807 13.2643945,9.5583144 13.2643945,11.7041585 Z M24.264685,11.6553197 C24.264685,15.6545879 21.2408557,18.3613636 16.7574274,18.3613636 C12.2475683,18.3613636 9.22373891,15.6545879 9.22373891,11.6553197 C9.22373891,7.63173422 12.2475683,4.97359304 16.7574274,4.97359304 C21.2408557,4.97359304 24.264685,7.63173422 24.264685,11.6553197 L24.264685,11.6553197 Z" id="Fill-3" fill="#33353A"></path>
                <g id="Group-7" transform="translate(50.459046, -0.000000)">
                    <mask id="mask-2" fill="white">
                        <use xlink:href="#path-1"></use>
                    </mask>
                    <g id="Clip-5"></g>
                    <path d="M11.1614974,11.7029325 C11.1614974,9.55708832 9.7278925,8.06944474 7.66846441,8.06944474 C5.58326071,8.06944474 4.14943742,9.58140558 4.12344336,11.7029325 C4.14943742,13.8487766 5.55704822,15.3364202 7.66846441,15.3364202 C9.7278925,15.3364202 11.1614974,13.8487766 11.1614974,11.7029325 Z M15.1499464,18.2138253 L11.1614974,18.2138253 L11.1614974,16.2874495 C10.1708836,17.6287809 8.65907816,18.3603419 6.73005721,18.3603419 C2.74182662,18.3603419 0.109000278,15.6535662 0.109000278,11.6054591 C0.109000278,7.60619089 2.71583257,4.94804971 6.62586256,4.94804971 C8.60687161,4.94804971 10.1448896,5.6796107 11.1614974,7.02094209 L11.1614974,0.119747135 L15.1499464,0.119747135 L15.1499464,18.2138253 L15.1499464,18.2138253 Z" id="Fill-4" fill="#33353A" mask="url(#mask-2)"></path>
                    <path d="M27.008696,11.2883131 C27.008696,9.26446393 25.6792858,7.87429369 23.7242708,7.87429369 C21.7692558,7.87429369 20.4398456,9.28878118 20.4138516,11.2883131 C20.4398456,13.2880494 21.7432618,14.6780153 23.7242708,14.6780153 C25.6792858,14.6780153 27.008696,13.2880494 27.008696,11.2883131 Z M30.997145,16.9946932 C30.997145,20.7256543 27.9993098,23.0911711 23.5156631,23.0911711 C21.1438695,23.0911711 19.0322348,22.3839273 17.4162347,21.3595376 L18.9018277,18.7261224 C20.1792498,19.579474 21.6650612,20.0427278 23.2552857,20.0427278 C25.5490971,20.0427278 27.008696,18.8967518 27.008696,17.1164838 L27.008696,15.6290446 C26.0702888,16.848381 24.636684,17.5311032 22.7858636,17.5311032 C19.162642,17.5311032 16.6602228,14.9949569 16.6602228,11.1908398 C16.6602228,7.48419594 19.1104354,4.97236696 22.681669,4.97236696 C24.5846959,4.94804971 26.0442948,5.65529345 27.008696,6.87462989 L27.008696,5.09456625 L30.997145,5.09456625 L30.997145,16.9946932 L30.997145,16.9946932 Z" id="Fill-6" fill="#33353A" mask="url(#mask-2)"></path>
                </g>
                <polygon id="Fill-8" fill="#33353A" points="83.2323061 18.2138253 87.2467492 18.2138253 87.2467492 0.119747135 83.2323061 0.119747135"></polygon>
                <path d="M98.0635523,13.726986 L98.0635523,12.5564884 L94.9095342,12.5564884 C93.3715163,12.5564884 92.6157228,12.995425 92.6157228,14.0439276 C92.6157228,15.0437958 93.4497169,15.7022007 94.8053396,15.7022007 C96.4995403,15.7022007 97.8289505,14.8486447 98.0635523,13.726986 Z M98.0897648,16.6775472 C97.1513576,17.7750931 95.6395521,18.3846591 93.6845371,18.3846591 C90.6867018,18.3846591 88.862094,16.6775472 88.862094,14.2879175 C88.862094,11.8249274 90.7649024,10.3618054 94.2057288,10.3374882 L98.0635523,10.3374882 L98.0635523,10.0934983 C98.0635523,8.70353238 97.073157,7.89881529 95.144136,7.89881529 C93.8929264,7.89881529 92.4331091,8.28891303 90.9735102,9.04499563 L89.7220821,6.46001055 C91.8075043,5.48445965 93.6061181,4.94804971 96.0565492,4.94804971 C99.810178,4.94804971 101.973801,6.70400044 101.999795,9.65456168 L102.026007,18.2138253 L98.0897648,18.2138253 L98.0897648,16.6775472 L98.0897648,16.6775472 Z" id="Fill-9" fill="#33353A"></path>
                <g id="Group-13" transform="translate(102.884029, 4.904320)">
                    <mask id="mask-4" fill="white">
                        <use xlink:href="#path-3"></use>
                    </mask>
                    <g id="Clip-11"></g>
                    <path d="M11.8087275,1.48253492 L10.4273292,4.04299841 C8.88931121,3.23828131 7.32529921,2.77502746 6.15229021,2.77502746 C5.21366458,2.77502746 4.53607167,3.06765186 4.53607167,3.75037401 C4.53607167,5.7255887 11.9391346,4.7259249 11.9129221,9.35907642 C11.9129221,12.0415349 9.38450886,13.4560223 6.20427832,13.4560223 C3.93646092,13.4560223 1.72063164,12.8219347 0.130625583,11.6271199 L1.43404173,9.09097362 C2.89364063,10.1394763 4.77067347,10.7247251 6.30869141,10.7247251 C7.32529921,10.7247251 8.08109272,10.4075791 8.08109272,9.70053967 C8.08109272,7.60333003 0.808436928,8.72519313 0.808436928,4.11615451 C0.808436928,1.40937882 3.28464363,0.0194129314 6.33468547,0.0194129314 C8.26370641,0.0194129314 10.2447155,0.556027226 11.8087275,1.48253492" id="Fill-10" fill="#33353A" mask="url(#mask-4)"></path>
                    <path d="M23.7978842,1.48253492 L22.4164859,4.04299841 C20.878468,3.23828131 19.314456,2.77502746 18.141447,2.77502746 C17.2030398,2.77502746 16.5254469,3.06765186 16.5254469,3.75037401 C16.5254469,5.7255887 23.9285098,4.7259249 23.9022973,9.35907642 C23.9022973,12.0415349 21.3738841,13.4560223 18.1936535,13.4560223 C15.9258361,13.4560223 13.7100068,12.8219347 12.1200008,11.6271199 L13.4234169,9.09097362 C14.8830158,10.1394763 16.7600487,10.7247251 18.2980666,10.7247251 C19.314456,10.7247251 20.0704679,10.4075791 20.0704679,9.70053967 C20.0704679,7.60333003 12.7978121,8.72519313 12.7978121,4.11615451 C12.7978121,1.40937882 15.2740188,0.0194129314 18.3240607,0.0194129314 C20.2530816,0.0194129314 22.2338722,0.556027226 23.7978842,1.48253492" id="Fill-12" fill="#33353A" mask="url(#mask-4)"></path>
                </g>
                <path d="M29.3490346,18.1212563 C28.1399835,17.931827 27.0034535,17.0588581 26.2994297,16.1550329 C25.6585343,15.3323333 25.525069,14.4824556 25.525069,13.5079264 L25.525069,5.46116414 C25.525069,5.28215647 25.6801596,5.1372747 25.8712923,5.1372747 L29.1834591,5.1372747 C29.3748103,5.1372747 29.5299008,5.28215647 29.5299008,5.46116414 L29.5299008,12.2708118 C29.5244399,15.1453561 31.3914246,14.6951804 32.0277328,13.9233631 L39.8630835,6.43773676 C42.6625776,3.76590435 49.1916723,5.00792327 49.1916723,9.23810321 L49.1916723,17.891162 C49.1916723,18.0699653 49.0365818,18.2150514 48.8452306,18.2150514 L45.6009979,18.2150514 C45.4098651,18.2150514 45.2547745,18.0699653 45.2547745,17.891162 L45.2547745,10.8401809 C45.2744339,8.57356791 43.6424879,7.70468597 41.92273,9.25261182 L33.96287,16.8912938 C32.7466104,18.106339 31.0510991,18.3877243 29.3490346,18.1212563" id="Fill-14" fill="#33353A"></path>
                <polyline id="Fill-15" fill="#33353A" points="39.1883302 18.3950808 39.1883302 15.4009937 39.1881118 7.08265478 35.1620915 10.9290717 35.1620915 18.3950808 39.1883302 18.3950808"></polyline>
            </g>
        </g>
    </g>
</svg>