<?xml version="1.0" encoding="UTF-8"?>
<svg width="112px" height="21px" viewBox="0 0 112 21" version="1.1" xmlns="http://www.w3.org/2000/svg" xmlns:xlink="http://www.w3.org/1999/xlink">
    <!-- Generator: Sketch 54.1 (76490) - https://sketchapp.com -->
    <title>RoundGlass Logo Copy</title>
    <desc>Created with Sketch.</desc>
    <defs>
        <polygon id="path-1" points="0.095753716 0.105194532 27.2301309 0.105194532 27.2301309 20.2741816 0.095753716 20.2741816"></polygon>
        <polygon id="path-3" points="0.114750946 0.017053721 20.9975042 0.017053721 20.9975042 11.8207419 0.114750946 11.8207419"></polygon>
    </defs>
    <g id="Page-1" stroke="none" stroke-width="1" fill="none" fill-rule="evenodd" opacity="0.396530878">
        <g id="Emailer_Birthday-I" transform="translate(-244.000000, -1325.000000)">
            <g id="RoundGlass-Logo" transform="translate(243.000000, 1324.000000)">
                <g transform="translate(1.337209, 1.333333)" id="RoundGlass-Foundation-Logo-2">
                    <g>
                        <g id="Logo_Full_L" transform="translate(0.000000, 0.195048)">
                            <polyline id="Fill-1" fill="#C34A2C" points="30.8887288 4.24063212 30.8887288 9.98181219 34.4256677 6.65077169 34.4256677 4.24063212 30.8887288 4.24063212"></polyline>
                            <path d="M3.52638485,6.55419377 C4.37377645,5.14035054 5.7705526,4.36916333 7.60253802,4.3478013 L7.60253802,7.45409171 C5.08358205,7.23975336 3.52638485,8.50370336 3.52638485,10.4532129 L3.52638485,16.0014167 L0,16.0014167 L0,4.4763325 L3.52638485,4.4763325 L3.52638485,6.55419377" id="Fill-2" fill="#33353A"></path>
                            <path d="M11.6524021,10.2817782 C11.6524021,12.1668426 12.8887572,13.4521547 14.7209345,13.4521547 C16.529893,13.4521547 17.789275,12.1668426 17.789275,10.2817782 C17.789275,8.3967137 16.529893,7.11122216 14.7209345,7.11122216 C12.8887572,7.11122216 11.6524021,8.3967137 11.6524021,10.2817782 Z M21.3158518,10.2388746 C21.3158518,13.7521206 18.6595017,16.1299479 14.7209345,16.1299479 C10.7591485,16.1299479 8.10279842,13.7521206 8.10279842,10.2388746 C8.10279842,6.70426652 10.7591485,4.36916333 14.7209345,4.36916333 C18.6595017,4.36916333 21.3158518,6.70426652 21.3158518,10.2388746 L21.3158518,10.2388746 Z" id="Fill-3" fill="#33353A"></path>
                            <g id="Group-7" transform="translate(44.326871, 0.000000)">
                                <mask id="mask-2" fill="white">
                                    <use xlink:href="#path-1"></use>
                                </mask>
                                <g id="Clip-5"></g>
                                <path d="M9.80506538,10.2807011 C9.80506538,8.39563662 8.54568334,7.08878305 6.73653297,7.08878305 C4.90473944,7.08878305 3.64516551,8.41699865 3.62233045,10.2807011 C3.64516551,12.1657656 4.8817125,13.4726191 6.73653297,13.4726191 C8.54568334,13.4726191 9.80506538,12.1657656 9.80506538,10.2807011 Z M13.3088071,16.0003396 L9.80506538,16.0003396 L9.80506538,14.3080719 C8.93483873,15.4863943 7.60675963,16.1290503 5.91216832,16.1290503 C2.40861852,16.1290503 0.095753716,13.7512231 0.095753716,10.1950735 C0.095753716,6.68182741 2.38578347,4.34672422 5.82063621,4.34672422 C7.56089763,4.34672422 8.91200367,4.98938023 9.80506538,6.1677026 L9.80506538,0.105194532 L13.3088071,0.105194532 L13.3088071,16.0003396 L13.3088071,16.0003396 Z" id="Fill-4" fill="#33353A" mask="url(#mask-2)"></path>
                                <path d="M23.7263892,9.91646951 C23.7263892,8.13857421 22.5585393,6.91734827 20.8411129,6.91734827 C19.1236865,6.91734827 17.9558366,8.15993624 17.9330016,9.91646951 C17.9558366,11.6731823 19.1008515,12.8942287 20.8411129,12.8942287 C22.5585393,12.8942287 23.7263892,11.6731823 23.7263892,9.91646951 Z M27.2301309,14.9293659 C27.2301309,18.2069116 24.5966159,20.2849524 20.6578568,20.2849524 C18.574302,20.2849524 16.7192896,19.6636584 15.2996784,18.7637605 L16.6047306,16.4503783 C17.7269104,17.200024 19.0321544,17.6069796 20.4291225,17.6069796 C22.4441721,17.6069796 23.7263892,16.6002716 23.7263892,15.0363556 L23.7263892,13.7296815 C22.9020246,14.8008347 21.6426425,15.4005872 20.0167483,15.4005872 C16.8338487,15.4005872 14.6355429,13.1726531 14.6355429,9.83084188 C14.6355429,6.57465824 16.7879867,4.36808625 19.9252161,4.36808625 C21.5969724,4.34672422 22.8791895,4.9680182 23.7263892,6.0391714 L23.7263892,4.47543494 L27.2301309,4.47543494 L27.2301309,14.9293659 L27.2301309,14.9293659 Z" id="Fill-6" fill="#33353A" mask="url(#mask-2)"></path>
                            </g>
                            <polygon id="Fill-8" fill="#33353A" points="73.1172689 16.0003396 76.6438456 16.0003396 76.6438456 0.105194532 73.1172689 0.105194532"></polygon>
                            <path d="M86.1461067,12.0587759 L86.1461067,11.0305263 L83.3753894,11.0305263 C82.0242834,11.0305263 81.3603398,11.4161199 81.3603398,12.3372003 C81.3603398,13.2155567 82.0929804,13.7939471 83.2838573,13.7939471 C84.7721656,13.7939471 85.9400155,13.0441219 86.1461067,12.0587759 Z M86.1691336,14.650762 C85.344769,15.6149255 84.0166899,16.1504124 82.2992635,16.1504124 C79.6657485,16.1504124 78.0628812,14.650762 78.0628812,12.5515387 C78.0628812,10.3878703 79.7344455,9.10255823 82.7571159,9.0811962 L86.1461067,9.0811962 L86.1461067,8.86685786 C86.1461067,7.64581143 85.2760719,6.93888982 83.5814806,6.93888982 C82.4823277,6.93888982 81.1999187,7.28157985 79.9177016,7.94577741 L78.8183569,5.67493982 C80.6503423,4.81794546 82.2303746,4.34672422 84.3830102,4.34672422 C87.6804688,4.34672422 89.5811513,5.88927817 89.6039864,8.48126425 L89.6270133,16.0003396 L86.1691336,16.0003396 L86.1691336,14.650762 L86.1691336,14.650762 Z" id="Fill-9" fill="#33353A"></path>
                            <g id="Group-13" transform="translate(90.380762, 4.308308)">
                                <mask id="mask-4" fill="white">
                                    <use xlink:href="#path-3"></use>
                                </mask>
                                <g id="Clip-11"></g>
                                <path d="M10.3736391,1.30236575 L9.16011901,3.5516618 C7.80901297,2.84474018 6.43507188,2.43778454 5.40461605,2.43778454 C4.58005951,2.43778454 3.98481296,2.69484695 3.98481296,3.29459939 C3.98481296,5.02977063 10.4881981,4.15159375 10.4651712,8.22168866 C10.4651712,10.5781539 8.24403035,11.8207419 5.45028616,11.8207419 C3.45807158,11.8207419 1.5115271,11.2637135 0.114750946,10.2141018 L1.25976582,7.9861678 C2.54198292,8.90724825 4.19090412,9.42137306 5.54201016,9.42137306 C6.43507188,9.42137306 7.09901548,9.14276911 7.09901548,8.52165464 C7.09901548,6.67931423 0.710189385,7.66483979 0.710189385,3.6159274 C0.710189385,1.23810015 2.88546819,0.017053721 5.56484522,0.017053721 C7.25943653,0.017053721 8.99969796,0.488454473 10.3736391,1.30236575" id="Fill-10" fill="#33353A" mask="url(#mask-4)"></path>
                                <path d="M20.9057802,1.30236575 L19.6922602,3.5516618 C18.3411542,2.84474018 16.9672131,2.43778454 15.9367573,2.43778454 C15.1123926,2.43778454 14.517146,2.69484695 14.517146,3.29459939 C14.517146,5.02977063 21.0205312,4.15159375 20.9975042,8.22168866 C20.9975042,10.5781539 18.7763634,11.8207419 15.9826193,11.8207419 C13.9904047,11.8207419 12.0438602,11.2637135 10.647084,10.2141018 L11.7920989,7.9861678 C13.074316,8.90724825 14.7232372,9.42137306 16.0743433,9.42137306 C16.9672131,9.42137306 17.6313486,9.14276911 17.6313486,8.52165464 C17.6313486,6.67931423 11.2425225,7.66483979 11.2425225,3.6159274 C11.2425225,1.23810015 13.4178013,0.017053721 16.0971783,0.017053721 C17.7917696,0.017053721 19.5318392,0.488454473 20.9057802,1.30236575" id="Fill-12" fill="#33353A" mask="url(#mask-4)"></path>
                            </g>
                            <path d="M25.7823117,15.9190203 C24.7201938,15.7526119 23.7217838,14.985733 23.1033184,14.1917476 C22.5403096,13.4690289 22.4230641,12.7224349 22.4230641,11.8663381 L22.4230641,4.79748099 C22.4230641,4.64022774 22.5593068,4.51295312 22.7272117,4.51295312 L25.6368581,4.51295312 C25.8049548,4.51295312 25.9411976,4.64022774 25.9411976,4.79748099 L25.9411976,10.7795673 C25.9364003,13.3047746 27.5764945,12.9093078 28.1354736,12.2312877 L35.0186115,5.65537292 C37.4778893,3.30824237 43.2135177,4.39932149 43.2135177,8.11541706 L43.2135177,15.7168888 C43.2135177,15.8739626 43.0772749,16.0014167 42.9091782,16.0014167 L40.0592099,16.0014167 C39.8913051,16.0014167 39.7550624,15.8739626 39.7550624,15.7168888 L39.7550624,9.52279782 C39.7723326,7.53164126 38.3387133,6.76835261 36.8279538,8.12816247 L29.8354379,14.8385324 C28.7669876,15.9059158 27.277528,16.153105 25.7823117,15.9190203" id="Fill-14" fill="#33353A"></path>
                            <polyline id="Fill-15" fill="#33353A" points="34.4258595 16.1595675 34.4258595 13.5293452 34.4256677 6.22191548 30.8889207 9.60088591 30.8889207 16.1595675 34.4258595 16.1595675"></polyline>
                        </g>
                    </g>
                </g>
            </g>
        </g>
    </g>
</svg>