<?xml version="1.0" encoding="UTF-8"?>
<svg width="41px" height="40px" viewBox="0 0 41 40" version="1.1" xmlns="http://www.w3.org/2000/svg" xmlns:xlink="http://www.w3.org/1999/xlink">
    <!-- Generator: Sketch 54.1 (76490) - https://sketchapp.com -->
    <title>Twitter Button</title>
    <desc>Created with Sketch.</desc>
    <g id="Page-1" stroke="none" stroke-width="1" fill="none" fill-rule="evenodd">
        <g id="Emailer_Birthday-I" transform="translate(-312.000000, -1124.000000)">
            <g id="Twitter-Button" transform="translate(312.333333, 1124.000000)">
                <circle id="Oval-3-Copy-2" stroke="#777777" style="mix-blend-mode: multiply;" cx="20" cy="20" r="19.5"></circle>
                <path d="M28.7069794,13.595679 C28.0457062,14.0046296 27.3150126,14.3023784 26.5340338,14.462146 C25.9119207,13.7672476 25.0228064,13.3333333 24.0384615,13.3333333 C22.1516523,13.3333333 20.6203998,14.9346405 20.6203998,16.9094953 C20.6203998,17.1899964 20.6497699,17.4623275 20.7085102,17.7242193 C17.8667263,17.5748911 15.347569,16.1524147 13.6601207,13.9864742 C13.3655292,14.5166122 13.1973184,15.1311728 13.1973184,15.7861293 C13.1973184,17.0261438 13.8007414,18.1213689 14.7187809,18.7627088 C14.1589681,18.7454611 13.6307505,18.5825163 13.1688383,18.3165396 L13.1688383,18.3605664 C13.1688383,20.0939542 14.3476491,21.5395788 15.9131667,21.867284 C15.6265853,21.9507988 15.3239838,21.9930102 15.0120373,21.9930102 C14.7917612,21.9930102 14.5768252,21.9716776 14.3685642,21.9294662 C14.8037763,23.3496732 16.0658025,24.3840777 17.5623448,24.4117647 C16.3924341,25.371732 14.9172518,25.9436275 13.315689,25.9436275 C13.0397876,25.9436275 12.7670013,25.9272876 12.5,25.8946078 C14.0130074,26.9076797 15.8112612,27.5 17.7416807,27.5 C24.0317865,27.5 27.4703184,22.0511075 27.4703184,17.3252542 C27.4703184,17.1695715 27.4676483,17.0138889 27.4618633,16.8613834 C28.1298116,16.3571169 28.7100944,15.7275781 29.1666667,15.0104394 C28.5543437,15.2950254 27.8948504,15.4874728 27.203317,15.5732571 C27.9095355,15.1311728 28.4515482,14.430374 28.7069794,13.595679" id="Twitter" fill="#777777"></path>
            </g>
        </g>
    </g>
</svg>